<?xml version="1.0" encoding="utf-8"?>
<!-- Generator: Adobe Illustrator 27.0.1, SVG Export Plug-In . SVG Version: 6.00 Build 0)  -->
<svg version="1.1" id="Calque_1" xmlns="http://www.w3.org/2000/svg" xmlns:xlink="http://www.w3.org/1999/xlink" x="0px" y="0px"
	 viewBox="0 0 220.5 220.6" style="enable-background:new 0 0 220.5 220.6;" xml:space="preserve">
<style type="text/css">
	.st0{fill:#DFE1E8;}
	.st1{fill:#FFFFFF;}
	.st2{fill-rule:evenodd;clip-rule:evenodd;fill:#566D84;}
</style>
<circle class="st0" cx="110.3" cy="110.3" r="110.3"/>
<path class="st1" d="M57.2,86.2c-26.9,0-49.6,20.2-54.7,46.9c12.1,50.3,55.6,87.6,107.5,87.6c50.8,0,93.6-35.8,106.7-84.5
	c-3.9-28.1-27.2-49.9-55.2-49.9L57.2,86.2L57.2,86.2z"/>
<path class="st2" d="M122.4,77.4V64c0-6.4,4.3-8,7.4-8c2.9,0,18.7,0,18.7,0V27.3h-25.9c-28.7,0-35.1,21.2-35.1,35v15.1H71v20.1v13.3
	h16.8c0,37.9,0,83.5,0,83.5h33.4c0,0,0-46.1,0-83.5h24.8l1.1-13.1l2-20.3L122.4,77.4L122.4,77.4z"/>
</svg>
