<svg id="Calque_1" data-name="Calque 1" xmlns="http://www.w3.org/2000/svg" viewBox="0 0 220.6 220.7"><defs><style>.cls-1{fill:#dfe1e8;}.cls-2{fill:#fff;}.cls-3{fill:#566d84;}</style></defs><title>google_white</title><circle class="cls-1" cx="110.3" cy="110.3" r="110.3"/><path class="cls-2" d="M57.2,86.2c-26.9,0-49.6,20.2-54.7,46.9,12.1,50.3,55.6,87.6,107.5,87.6,50.8,0,93.6-35.8,106.7-84.5-3.9-28.1-27.2-49.9-55.2-49.9L57.2,86.2Z" transform="translate(0 0)"/><path class="cls-3" d="M179.8,98l-.72-3H112.92v28h39.53c-4.1,19.49-23.15,29.75-38.7,29.75A46.33,46.33,0,0,1,82.6,140.24a44.5,44.5,0,0,1-13.26-31.39,45.93,45.93,0,0,1,13-31.35c7.71-7.76,19.36-12.1,30.94-12.1a40.34,40.34,0,0,1,26.33,10.26l19.89-19.8a70.34,70.34,0,0,0-46.86-18h0A72.47,72.47,0,0,0,61.37,58.67C48,71.93,41.13,91.11,41.13,108.9s6.53,36,19.46,49.39C74.39,172.54,94,180,114.09,180a66,66,0,0,0,48.07-20.21c12.16-12.82,18.46-30.56,18.46-49.16A82.38,82.38,0,0,0,179.8,98Z" transform="translate(0 0)"/></svg>