<?xml version="1.0" encoding="utf-8"?>
<!-- Generator: Adobe Illustrator 27.0.1, SVG Export Plug-In . SVG Version: 6.00 Build 0)  -->
<svg version="1.1" id="Calque_1" xmlns="http://www.w3.org/2000/svg" xmlns:xlink="http://www.w3.org/1999/xlink" x="0px" y="0px"
	 viewBox="0 0 220.5 220.6" style="enable-background:new 0 0 220.5 220.6;" xml:space="preserve">
<style type="text/css">
	.st0{fill:#DFE1E8;}
	.st1{fill:#FFFFFF;}
	.st2{fill:#566D84;}
</style>
<circle class="st0" cx="110.3" cy="110.3" r="110.3"/>
<path class="st1" d="M57.2,86.2c-26.9,0-49.6,20.2-54.7,46.9c12.1,50.3,55.6,87.6,107.5,87.6c50.8,0,93.6-35.8,106.7-84.5
	c-3.9-28.1-27.2-49.9-55.2-49.9L57.2,86.2L57.2,86.2z"/>
<g>
	<path class="st2" d="M80.5,179.6c-22.2,0-40.4-18.1-40.4-40.4V79.7c0-22.2,18.1-40.4,40.4-40.4h59.6c22.3,0,40.4,18.1,40.4,40.4
		v59.6c0,22.2-18.1,40.4-40.4,40.4L80.5,179.6L80.5,179.6z M80.5,53.1C65.9,53.1,54,65,54,79.7v59.6c0,14.6,11.9,26.6,26.6,26.6
		h59.6c14.6,0,26.6-11.9,26.6-26.6V79.7c0-14.7-11.9-26.6-26.6-26.6H80.5z"/>
	<path class="st2" d="M110.4,145.9c-20.1,0-36.4-16.3-36.4-36.4c0-20.1,16.3-36.4,36.4-36.4c20.1,0,36.4,16.3,36.4,36.4
		C146.8,129.6,130.4,145.9,110.4,145.9z M110.4,86.8c-12.5,0-22.6,10.2-22.6,22.6s10.2,22.6,22.6,22.6s22.6-10.2,22.6-22.6
		S122.8,86.8,110.4,86.8z"/>
	<path class="st2" d="M147.3,81.5c-5.2,0-9.5-4.2-9.5-9.5s4.2-9.5,9.5-9.5s9.5,4.3,9.5,9.5C156.8,77.2,152.6,81.5,147.3,81.5z"/>
</g>
</svg>
