<?xml version="1.0" encoding="utf-8"?>
<!-- Generator: Adobe Illustrator 27.0.1, SVG Export Plug-In . SVG Version: 6.00 Build 0)  -->
<svg version="1.1" id="Calque_1" xmlns="http://www.w3.org/2000/svg" xmlns:xlink="http://www.w3.org/1999/xlink" x="0px" y="0px"
	 viewBox="0 0 220.5 220.6" style="enable-background:new 0 0 220.5 220.6;" xml:space="preserve">
<style type="text/css">
	.st0{fill:#DFE1E8;}
	.st1{fill:#FFFFFF;}
	.st2{fill:#566D84;}
</style>
<circle class="st0" cx="110.3" cy="110.3" r="110.3"/>
<path class="st1" d="M57.2,86.2c-26.9,0-49.6,20.2-54.7,46.9c12.1,50.3,55.6,87.6,107.5,87.6c50.8,0,93.6-35.8,106.7-84.5
	c-3.9-28.1-27.2-49.9-55.2-49.9L57.2,86.2L57.2,86.2z"/>
<g id="XMLID_1434_">
	<g id="XMLID_1436_">
		<rect id="XMLID_1438_" x="58.2" y="86.6" class="st2" width="23.9" height="77.3"/>
		<path id="XMLID_1437_" class="st2" d="M70,76.4c7.8,0,14.1-6.4,14.1-14.3S77.8,47.9,70,47.9s-14.1,6.4-14.1,14.3
			C55.8,70.1,62.2,76.4,70,76.4z"/>
	</g>
	<path id="XMLID_1435_" class="st2" d="M120.3,123.3c0-10.9,5-17.3,14.6-17.3c8.8,0,13,6.2,13,17.3c0,11.1,0,40.6,0,40.6h23.8
		c0,0,0-28.2,0-48.9S160,84.2,143.6,84.2c-16.4,0-23.3,12.8-23.3,12.8V86.6h-23v77.3h22.9C120.3,163.8,120.3,135.2,120.3,123.3z"/>
</g>
</svg>
